<svg xmlns="http://www.w3.org/2000/svg" width="16" height="17" viewBox="0 0 16 17" fill="none">
  <path d="M12 4.13232C12 1.92632 10.206 0.132324 8 0.132324C5.794 0.132324 4 1.92632 4 4.13232C4 6.08133 5.402 7.70432 7.25 8.05632V12.3823C7.25 12.7963 7.586 13.1323 8 13.1323C8.414 13.1323 8.75 12.7963 8.75 12.3823V8.05632C10.598 7.70332 12 6.08133 12 4.13232Z" fill="#6D758F"/>
  <path d="M8 16.1323C5.029 16.1323 0 15.5533 0 13.3823C0 11.7713 2.668 11.0983 4.907 10.8173C5.316 10.7653 5.693 11.0573 5.744 11.4683C5.796 11.8793 5.504 12.2543 5.093 12.3053C2.829 12.5903 1.771 13.1173 1.531 13.3833C1.896 13.7973 4.033 14.6333 7.999 14.6333C11.965 14.6333 14.102 13.7973 14.467 13.3833C14.227 13.1173 13.17 12.5903 10.905 12.3053C10.494 12.2533 10.202 11.8783 10.254 11.4683C10.306 11.0573 10.684 10.7653 11.091 10.8173C13.33 11.0983 15.998 11.7723 15.998 13.3823C15.998 15.5533 10.969 16.1323 7.998 16.1323H8Z" fill="#6D758F"/>
</svg>